<svg xmlns="http://www.w3.org/2000/svg" width="12" height="12" viewBox="0 0 12 12">
  <path id="Icon_awesome-certificate" data-name="Icon awesome-certificate" d="M10.749,6l1.078-1.055A.558.558,0,0,0,11.576,4l-1.468-.375.414-1.453a.568.568,0,0,0-.7-.7l-1.453.414L8,.419a.562.562,0,0,0-.945-.25L6,1.255,4.945.169A.562.562,0,0,0,4,.419L3.626,1.888,2.173,1.474a.568.568,0,0,0-.7.7l.414,1.453L.423,4a.558.558,0,0,0-.25.945L1.251,6,.173,7.053A.558.558,0,0,0,.423,8l1.468.375L1.478,9.826a.568.568,0,0,0,.7.7l1.453-.414L4,11.576a.557.557,0,0,0,.945.25L6,10.748l1.054,1.078A.56.56,0,0,0,8,11.576l.375-1.469,1.453.414a.568.568,0,0,0,.7-.7l-.414-1.453L11.576,8a.558.558,0,0,0,.25-.945L10.749,6Z" transform="translate(0 0)" fill="#3e82f7"/>
</svg>
