<svg xmlns="http://www.w3.org/2000/svg" xmlns:xlink="http://www.w3.org/1999/xlink" width="33" height="33" viewBox="0 0 24 24">
  <defs>
    <clipPath id="clip-path">
      <rect id="Rectangle_2085" data-name="Rectangle 2085" width="24" height="24" transform="translate(-1186 9368)" fill="#fff" stroke="#707070" stroke-width="1"/>
    </clipPath>
  </defs>
  <g id="Mask_Group_91" data-name="Mask Group 91" transform="translate(1186 -9368)" clip-path="url(#clip-path)">
    <path id="path" d="M648.3,216.5l3.3,3.3-3.3,3.3v4.7h-4.7l-3.3,3.3-3.3-3.3h-4.7v-4.7l-3.3-3.3,3.3-3.3v-4.7H637l3.3-3.3,3.3,3.3h4.7Zm-12.2,7.6a5.756,5.756,0,0,0,4.2,1.8,5.6,5.6,0,0,0,4.2-1.8,6.174,6.174,0,0,0,1.8-4.2,5.447,5.447,0,0,0-1.8-4.2,6.174,6.174,0,0,0-4.2-1.8,5.6,5.6,0,0,0-4.2,1.8,6.174,6.174,0,0,0-1.8,4.2A5.756,5.756,0,0,0,636.1,224.1Zm1.4-7.1a3.867,3.867,0,1,1-1.2,2.8A3.784,3.784,0,0,1,637.5,217Z" transform="translate(-1814 9160.5)" fill="#3e82f7"/>
  </g>
</svg>
