<svg xmlns="http://www.w3.org/2000/svg" width="24" height="24" viewBox="0 0 24 24"><defs><style>.a{fill:none;}.b{fill:#3e82f7;}</style></defs><rect class="a" width="24" height="24"/><rect class="a" width="24" height="24"/><path class="b" d="M107,48.4a1.45,1.45,0,0,1,2.1,0,1.485,1.485,0,0,1,.4,1.4l-.9,4.6h5.6a3.032,3.032,0,0,1,2.8,4.2l-3.3,7.6a1.975,1.975,0,0,1-1.8,1.2h-9a2.006,2.006,0,0,1-2-2v-10a1.974,1.974,0,0,1,.6-1.4Zm-10.1,19a2.006,2.006,0,0,1-2-2v-8a2,2,0,1,1,4,0v8A2.006,2.006,0,0,1,96.9,67.4Z" transform="translate(-94 -46)"/></svg>