<svg xmlns="http://www.w3.org/2000/svg" width="15" height="16" viewBox="0 0 11.2 11.2"><g transform="translate(5.6 1.414) rotate(45)" fill="#ddd" stroke-linecap="square" stroke-linejoin="round"><path d="M 5.919600486755371 6.419600486755371 L 4.817962917513796e-07 6.419600486755371 L 4.817962917513796e-07 5.419600486755371 L 5.419600486755371 5.419600486755371 L 5.419600486755371 4.817962917513796e-07 L 6.419600486755371 4.817962917513796e-07 L 6.419600486755371 5.919600486755371 L 5.919600486755371 5.919600486755371 L 5.919600486755371 6.419600486755371 Z" stroke="none"/><path d="M 5.919600486755371 5.919600486755371 L 4.817962917513796e-07 5.919600486755371 L 5.919600486755371 5.919600486755371 M 5.919600486755371 5.919600486755371 L 5.919600486755371 4.817962917513796e-07 L 5.919600486755371 5.919600486755371 M 5.919600486755371 6.919600486755371 L 4.817962917513796e-07 6.919600486755371 C -0.552279531955719 6.919600486755371 -0.9999995231628418 6.471880435943604 -0.9999995231628418 5.919600486755371 C -0.9999995231628418 5.367320537567139 -0.552279531955719 4.919600486755371 4.817962917513796e-07 4.919600486755371 L 4.919600486755371 4.919600486755371 L 4.919600486755371 4.817962917513796e-07 C 4.919600486755371 -0.552279531955719 5.367320537567139 -0.9999995231628418 5.919600486755371 -0.9999995231628418 C 6.471880435943604 -0.9999995231628418 6.919600486755371 -0.552279531955719 6.919600486755371 4.817962917513796e-07 L 6.919600486755371 5.919600486755371 C 6.919600486755371 6.471880435943604 6.471880435943604 6.919600486755371 5.919600486755371 6.919600486755371 Z" stroke="none" fill="#999"/></g></svg>