<svg xmlns="http://www.w3.org/2000/svg" width="18.053" height="15.002" viewBox="0 0 18.053 15.002"><defs><style>.a{fill:#3e82f7;}</style></defs><path class="a" d="M0,0,2.865,2.96l1.1-1-1-1.953Z"/><path class="a" d="M69.672,36.347a1.036,1.036,0,0,0,.565-1.993l-.425-.12-.55,1.989Z" transform="translate(-56.758 -28.055)"/><path class="a" d="M50.25,29.035l-3.429-.977a.422.422,0,0,0-.514.305l-.322,1.159a.426.426,0,0,0,.29.53l3.429.967Z" transform="translate(-37.669 -22.981)"/><path class="a" d="M28.912,20.654a2.268,2.268,0,0,0-.966-.557l-4.157-1.176h0l-2.554-4.581a1.053,1.053,0,0,0-1.845,1.013l3.2,5.665a1.755,1.755,0,0,0,.92.643l5.809,1.646,2.694,2.765a.768.768,0,0,0,.347.209.779.779,0,0,0,.949-.537.788.788,0,0,0-.217-.777Z" transform="translate(-15.79 -11.307)"/><path class="a" d="M79.974,45.188l.6.8,1.227-1.355-1.036-.584A1.509,1.509,0,0,0,79.694,42.4a1.508,1.508,0,1,0,.28,2.791Z" transform="translate(-63.752 -34.698)"/></svg>