<svg xmlns="http://www.w3.org/2000/svg" width="19.851" height="17.217" viewBox="0 0 19.851 17.217"><defs><style>.a{fill:#3e82f7;}</style></defs><path class="a" d="M10.071,14.092a.554.554,0,0,1,.954,0,3.391,3.391,0,0,0,3.321,1.642,3.484,3.484,0,0,0,3.016-3.016,3.424,3.424,0,0,0-3.4-3.818H7.208A3.505,3.505,0,0,0,3.7,12.145a3.444,3.444,0,0,0,6.375,1.947Z" transform="translate(-2.283 -6.839)"/><path class="a" d="M20.457,30.2H15.8a2.329,2.329,0,0,0,4.657,0Z" transform="translate(-9.768 -20.007)"/><path class="a" d="M.8,15.4a.95.95,0,0,0-.8.954.985.985,0,0,0,.764.954,5.827,5.827,0,0,1-.115-1.145A4.5,4.5,0,0,1,.8,15.4Z" transform="translate(0 -10.857)"/><path class="a" d="M41.215,16.813a2.234,2.234,0,0,1-.076.5.947.947,0,0,0,.764-.954.98.98,0,0,0-.8-.954A2.936,2.936,0,0,1,41.215,16.813Z" transform="translate(-25.41 -10.857)"/><path class="a" d="M31.347,3.5a1.011,1.011,0,0,0-.993.993v9.926a4.309,4.309,0,0,1-4.314,4.314,4.385,4.385,0,0,1-3.779-2.252,2.972,2.972,0,0,1-1.413.344,3.362,3.362,0,0,1-.649-.076,6.292,6.292,0,0,0,12.14-2.329V4.493A.986.986,0,0,0,31.347,3.5Z" transform="translate(-12.488 -3.5)"/></svg>