<svg xmlns="http://www.w3.org/2000/svg" width="19.288" height="23.621" viewBox="0 0 19.288 23.621"><defs><style>.a{fill:#3e82f7;}</style></defs><g transform="translate(8.364) rotate(45)"><path class="a" d="M0,0,2.941,3.039,4.07,2.014l-1.022-2Z"/><path class="a" d="M9.9,7.037a2.328,2.328,0,0,0-.991-.571L4.64,5.259h0L2.018.557A1.072,1.072,0,0,0,.041.8a1.077,1.077,0,0,0,.083.8L3.4,7.411a1.8,1.8,0,0,0,.944.66l5.963,1.69L13.077,12.6a.789.789,0,0,0,.356.214.8.8,0,0,0,.974-.551.809.809,0,0,0-.223-.8Z" transform="translate(3.571 2.557)"/><path class="a" d="M2.235,2.922l.62.82,1.26-1.39-1.064-.6A1.549,1.549,0,0,0,1.948.057,1.531,1.531,0,0,0,.058,1.13,1.546,1.546,0,0,0,1.12,3.041,1.52,1.52,0,0,0,2.235,2.922Z" transform="translate(14.417 7.847)"/></g></svg>