<svg xmlns="http://www.w3.org/2000/svg" width="22.5" height="8.845" viewBox="0 0 22.5 8.845"><defs><style>.a{fill:#3e82f7;}</style></defs><path class="a" d="M26.367,19.471A1.6,1.6,0,0,0,25.229,19H14.4a.4.4,0,0,0-.4.4v1.206H27.5Z" transform="translate(-9.979 -19)"/><path class="a" d="M28.308,25H14v.8H29.112Z" transform="translate(-9.979 -22.588)"/><path class="a" d="M25.073,29H4.4a.4.4,0,0,0-.4.4v4.021a.4.4,0,0,0,.4.4H21.289A5.234,5.234,0,0,0,26.5,29ZM10.835,32.216H7.216v-.8h3.619Zm6.031-.8H15.258v-.8h1.608Zm3.216,0H18.474v-.8h1.608Zm3.216,0H21.691v-.8H23.3Z" transform="translate(-4 -24.979)"/></svg>