
<svg xmlns="http://www.w3.org/2000/svg" width="45" height="45" viewBox="0 0 28.208 21.14">
  <g id="noun_Gauge_84114" transform="translate(0.113 0.08)">
    <g id="Group_599" data-name="Group 599" transform="translate(0 0)">
      <path id="Path_2302" data-name="Path 2302" d="M29.039,8.567a19.274,19.274,0,0,0-27.258,0l-.362.362,4.342,4.342.362-.362A13.135,13.135,0,0,1,22.376,11.06l1.95-2.636,1.645,1.218L24.018,12.28c.232.2.46.409.679.628l.362.362L29.4,8.928ZM22.491,9.933a14.167,14.167,0,0,0-16.723,1.9l-2.9-2.9A18.27,18.27,0,0,1,24.539,6.384Zm2.764-.184-.822-.609L15.964,20.585A1.708,1.708,0,0,0,15.6,20.5a1.738,1.738,0,0,0-.2-.011,1.705,1.705,0,0,0-.19,3.4,1.728,1.728,0,0,0,.2.011,1.7,1.7,0,0,0,1.373-2.7ZM16.087,22.272a.68.68,0,0,1-.675.606.716.716,0,0,1-.08,0,.682.682,0,0,1,.074-1.359.693.693,0,0,1,.082.005.679.679,0,0,1,.6.753Z" transform="translate(-1.419 -2.921)" fill="#00223c" stroke="#01223c" stroke-width="0.16"/>
    </g>
  </g>
</svg>
