<svg xmlns="http://www.w3.org/2000/svg" xmlns:xlink="http://www.w3.org/1999/xlink" width="33" height="33" viewBox="0 0 24 24">
  <defs>
    <clipPath id="clip-path">
      <rect id="Rectangle_2086" data-name="Rectangle 2086" width="24" height="24" transform="translate(-1112 9368)" fill="#fff" stroke="#707070" stroke-width="1"/>
    </clipPath>
  </defs>
  <g id="Mask_Group_92" data-name="Mask Group 92" transform="translate(1112 -9368)" clip-path="url(#clip-path)">
    <path id="path" d="M315,357a4.739,4.739,0,0,1,3.3,1.6,4.938,4.938,0,0,1,1.4,3.4,4.539,4.539,0,0,1-1.5,3.5,5.289,5.289,0,0,1-3.5,1.5h-13a5.447,5.447,0,0,1-4.2-1.8,6.174,6.174,0,0,1-1.8-4.2,5.851,5.851,0,0,1,1.5-4,5.591,5.591,0,0,1,3.8-1.9,8.911,8.911,0,0,1,2.8-3,6.8,6.8,0,0,1,3.9-1.1,7.3,7.3,0,0,1,7.3,6Z" transform="translate(-1407.7 9021)" fill="#bbb"/>
  </g>
</svg>
