<svg xmlns="http://www.w3.org/2000/svg" xmlns:xlink="http://www.w3.org/1999/xlink" width="24" height="24" viewBox="0 0 24 24"><defs><clipPath id="a"><path d="M0,0H24V24H0Z" transform="translate(20 411)" fill="#fff"/></clipPath></defs><g transform="translate(-20 -411)" clip-path="url(#a)"><g transform="translate(30.861 411.138) rotate(45)"><path d="M0,0,2.941,3.039,4.07,2.014l-1.022-2Z" fill="#fff"/><path d="M29.168,20.836a2.328,2.328,0,0,0-.991-.571l-4.267-1.207h0l-2.622-4.7a1.081,1.081,0,0,0-1.894,1.04l3.28,5.815a1.8,1.8,0,0,0,.944.66l5.963,1.69L32.345,26.4a.789.789,0,0,0,.356.214.8.8,0,0,0,.974-.551.809.809,0,0,0-.223-.8Z" transform="translate(-15.698 -11.241)" fill="#fff"/><path d="M80.032,45.264l.62.82,1.26-1.39-1.064-.6a1.549,1.549,0,0,0-1.1-1.695,1.548,1.548,0,1,0,.287,2.865Z" transform="translate(-63.38 -34.495)" fill="#fff"/></g></g></svg>