<svg xmlns="http://www.w3.org/2000/svg" xmlns:xlink="http://www.w3.org/1999/xlink" width="33" height="33" viewBox="0 0 24 24">
  <defs>
    <clipPath id="clip-path">
      <rect id="Rectangle_2084" data-name="Rectangle 2084" width="24" height="24" transform="translate(-1266 9368)" fill="#fff" stroke="#707070" stroke-width="1"/>
    </clipPath>
  </defs>
  <g id="Mask_Group_90" data-name="Mask Group 90" transform="translate(1266 -9368)" clip-path="url(#clip-path)">
    <path id="path" d="M926.3,573.4a6.236,6.236,0,0,1,1.1-3.4,5.079,5.079,0,0,1,2.8-2.2l-.8-.4a6.609,6.609,0,0,1-2.2-2.2,6.026,6.026,0,0,1-.8-2.9,5.45,5.45,0,0,1,6,0,3.507,3.507,0,0,1,.8.5,3.87,3.87,0,0,1-.1-.9,6.109,6.109,0,0,1,.8-3,2.2,2.2,0,0,1,4.4,0,5.208,5.208,0,0,1,.8,3,3.446,3.446,0,0,1-.1.9,2.177,2.177,0,0,1,.8-.5,5.45,5.45,0,0,1,6,0,6.026,6.026,0,0,1-.8,2.9,5.81,5.81,0,0,1-2.2,2.2c-.1,0-.1.1-.3.1s-.2.1-.3.2a.367.367,0,0,1-.3.1c.1,0,.2.1.3.1s.2.1.3.2a.367.367,0,0,0,.3.1,6.609,6.609,0,0,1,2.2,2.2,6.026,6.026,0,0,1,.8,2.9,5.45,5.45,0,0,1-6,0,3.507,3.507,0,0,1-.8-.5,3.87,3.87,0,0,1,.1.9,6.109,6.109,0,0,1-.8,3,2.2,2.2,0,0,1-4.4,0,5.208,5.208,0,0,1-.8-3,3.446,3.446,0,0,1,.1-.9,2.177,2.177,0,0,1-.8.5A5.828,5.828,0,0,1,926.3,573.4Zm6.9-2.8a3.867,3.867,0,1,0-1.2-2.8A3.784,3.784,0,0,0,933.2,570.6Z" transform="translate(-2190.3 8812.3)" fill="#3e82f7"/>
  </g>
</svg>
