<svg xmlns="http://www.w3.org/2000/svg" width="18.5" height="14.8" viewBox="0 0 18.5 14.8"><path d="M76.8,317.1a1.366,1.366,0,0,1,1.1-.4,1.5,1.5,0,0,1,1.1.4,1.366,1.366,0,0,1,.4,1.1,1.5,1.5,0,0,1-.4,1.1,1.366,1.366,0,0,1-1.1.4,1.5,1.5,0,0,1-1.1-.4,1.366,1.366,0,0,1-.4-1.1A2.1,2.1,0,0,1,76.8,317.1Zm0,6a1.366,1.366,0,0,1,1.1-.4,1.5,1.5,0,0,1,1.1.4,1.366,1.366,0,0,1,.4,1.1,1.5,1.5,0,0,1-.4,1.1,1.366,1.366,0,0,1-1.1.4,1.5,1.5,0,0,1-1.1-.4,1.366,1.366,0,0,1-.4-1.1A2.1,2.1,0,0,1,76.8,323.1Zm.2,6.2a1.489,1.489,0,0,1,.9-.4,1.433,1.433,0,0,1,1,.4,1.222,1.222,0,0,1,.4.9,1.086,1.086,0,0,1-.4.9,1.284,1.284,0,0,1-1,.4.975.975,0,0,1-.9-.4,1.212,1.212,0,0,1,0-1.8Zm3.9-12.1h14v2h-14Zm0,8v-2h14v2Zm0,6v-2h14v2Z" transform="translate(-76.4 -316.7)" fill="#80878d"/></svg>